{  "asset": {    "version": "2.0",    "generator": "THREE.GLTFExporter"  },  "scenes": [    {      "name": "AuxScene",      "nodes": [        1      ]    }  ],  "scene": 0,  "nodes": [    {      "matrix": [        100,        0,        0,        0,        0,        -0.0000162920679613876,        -99.99999999999866,        0,        0,        99.99999999999866,        -0.0000162920679613876,        0,        0,        0,        0,        1      ],      "name": "Plane",      "extras": {        "originalName": "Plane",        "transformData": {          "inheritType": 1,          "eulerOrder": "ZYX",          "rotation": [            -90.00000933466734,            0,            0          ],          "scale": [            100,            100,            100          ],          "parentMatrix": {            "elements": [              1,              0,              0,              0,              0,              1,              0,              0,              0,              0,              1,              0,              0,              0,              0,              1            ]          },          "parentMatrixWorld": {            "elements": [              1,              0,              0,              0,              0,              1,              0,              0,              0,              0,              1,              0,              0,              0,              0,              1            ]          }        }      },      "mesh": 0    },    {      "children": [        0      ]    }  ],  "bufferViews": [    {      "buffer": 0,      "byteOffset": 0,      "byteLength": 66168,      "target": 34962,      "byteStride": 12    },    {      "buffer": 0,      "byteOffset": 66168,      "byteLength": 66168,      "target": 34962,      "byteStride": 12    },    {      "buffer": 0,      "byteOffset": 132336,      "byteLength": 44112,      "target": 34962,      "byteStride": 8    }  ],  "buffers": [    {      "byteLength": 176448,      "uri": "data:application/octet-stream;base64,"    }  ],  "accessors": [    {      "bufferView": 0,      "componentType": 5126,      "count": 5514,      "max": [        1.1198065280914307,        0.44126129150390625,        1.7558506727218628      ],      "min": [        -1.13770592212677,        -0.18417400121688843,        0      ],      "type": "VEC3"    },    {      "bufferView": 1,      "componentType": 5126,      "count": 5514,      "max": [        1,        0.9943122267723083,        1      ],      "min": [        -1,        -0.9995094537734985,        -1      ],      "type": "VEC3"    },    {      "bufferView": 2,      "componentType": 5126,      "count": 5514,      "max": [        0.9984363913536072,        1.0000001192092896      ],      "min": [        -1.1731215110444282e-8,        -4.2345369877239136e-8      ],      "type": "VEC2"    }  ],  "materials": [    {      "pbrMetallicRoughness": {        "baseColorFactor": [          0.6038273388475408,          0.6038273388475408,          0.6038273388475408,          1        ],        "metallicFactor": 0.5,        "roughnessFactor": 0.5      },      "name": "__DEFAULT"    }  ],  "meshes": [    {      "primitives": [        {          "mode": 4,          "attributes": {            "POSITION": 0,            "NORMAL": 1,            "TEXCOORD_0": 2          },          "material": 0        }      ]    }  ]}